<mxfile host="app.diagrams.net" agent="Mozilla/5.0 (Windows NT 10.0; Win64; x64; rv:139.0) Gecko/20100101 Firefox/139.0" version="27.1.1">
  <diagram id="zoCXydCkctltuRsv51IL" name="Page-1">
    <mxGraphModel dx="906" dy="568" grid="1" gridSize="10" guides="1" tooltips="1" connect="1" arrows="1" fold="1" page="1" pageScale="1" pageWidth="850" pageHeight="1100" math="0" shadow="0">
      <root>
        <mxCell id="0" />
        <mxCell id="1" parent="0" />
        <mxCell id="tIdZeXWYgV82YrUBsXAL-1" value="Robot" style="swimlane;fontStyle=1;align=center;verticalAlign=top;childLayout=stackLayout;horizontal=1;startSize=26;horizontalStack=0;resizeParent=1;resizeParentMax=0;resizeLast=0;collapsible=1;marginBottom=0;whiteSpace=wrap;html=1;labelBackgroundColor=none;labelBorderColor=none;" parent="1" vertex="1">
          <mxGeometry x="1280" y="120" width="360" height="750" as="geometry" />
        </mxCell>
        <mxCell id="tIdZeXWYgV82YrUBsXAL-2" value="&lt;div&gt;+ field: type&lt;/div&gt;&lt;div&gt;# robotPositionX : int&lt;/div&gt;&lt;div&gt;# robotPositionY : int&lt;/div&gt;&lt;div&gt;# id_ : string&lt;/div&gt;&lt;div&gt;# robotType_ : string&lt;/div&gt;&lt;div&gt;# robotName_ : string&lt;/div&gt;&lt;div&gt;# numOfLives_ : int&lt;/div&gt;&lt;div&gt;# numOfKills_ : int&lt;/div&gt;&lt;div&gt;# PREV_KILL_ : bool&lt;/div&gt;&lt;div&gt;# IS_WAITING_ : bool&lt;/div&gt;&lt;div&gt;# UPGRADED_MOVINGROBOT_ : string&lt;br&gt;# UPGRADED_SHOOTINGROBOT_ : string&lt;br&gt;# UPGRADED_SEEINGROBOT_ string&lt;br&gt;&lt;br&gt;&lt;/div&gt;" style="text;fillColor=none;align=left;verticalAlign=top;spacingLeft=4;spacingRight=4;overflow=hidden;rotatable=0;points=[[0,0.5],[1,0.5]];portConstraint=eastwest;whiteSpace=wrap;html=1;labelBackgroundColor=none;labelBorderColor=none;" parent="tIdZeXWYgV82YrUBsXAL-1" vertex="1">
          <mxGeometry y="26" width="360" height="204" as="geometry" />
        </mxCell>
        <mxCell id="tIdZeXWYgV82YrUBsXAL-3" value="" style="line;strokeWidth=1;fillColor=none;align=left;verticalAlign=middle;spacingTop=-1;spacingLeft=3;spacingRight=3;rotatable=0;labelPosition=right;points=[];portConstraint=eastwest;labelBackgroundColor=none;labelBorderColor=none;" parent="tIdZeXWYgV82YrUBsXAL-1" vertex="1">
          <mxGeometry y="230" width="360" height="8" as="geometry" />
        </mxCell>
        <mxCell id="tIdZeXWYgV82YrUBsXAL-4" value="&lt;div&gt;+ method(type): type&lt;/div&gt;&lt;div&gt;+ Robot(id : string , x : int , y : int )&lt;/div&gt;&lt;div&gt;+ ~Robot()&lt;br&gt;+ Robot(other : const Robot &amp;amp;)&lt;/div&gt;&lt;div&gt;+ operator=(other : const Robot &amp;amp;) : Robot &amp;amp;&lt;/div&gt;&lt;div&gt;+ x() : int&lt;/div&gt;&lt;div&gt;+ setX(x : int) : void&lt;/div&gt;&lt;div&gt;+ y() : int&lt;/div&gt;&lt;div&gt;+ setY(y : int) : void &lt;br&gt;&lt;/div&gt;&lt;div&gt;+ id() : string&lt;/div&gt;&lt;div&gt;+ ApparentId() : string&lt;/div&gt;&lt;div&gt;+ setId(id : string) : void&lt;/div&gt;&lt;div&gt;+ robotType() : string&lt;/div&gt;&lt;div&gt;+ setRobotType(robotType : string) : void&lt;/div&gt;&lt;div&gt;+ robotName() : string&lt;/div&gt;&lt;div&gt;+ setRobotName(robotName : string) : void&lt;/div&gt;&lt;div&gt;+ numOfLives() : int&lt;/div&gt;&lt;div&gt;+ setNumOfLives(numOfLives : int) : void&lt;/div&gt;&lt;div&gt;+ numOfKills() : int&lt;/div&gt;&lt;div&gt;+ setNumOfKills(numOfKills : int) : void&lt;/div&gt;&lt;div&gt;+ reduceLife() : void&lt;/div&gt;&lt;div&gt;+ incrementKills() : void&lt;/div&gt;&lt;div&gt;+ isAlive() : bool&lt;/div&gt;&lt;div&gt;+ operator &amp;lt;&amp;lt;(out : ostream &amp;amp;, r : const Robot &amp;amp;) : ostream &amp;amp;&lt;/div&gt;&lt;div&gt;+ setLocation(int x, int y) : void&lt;/div&gt;&lt;div&gt;+ actions(Battlefield *battlefield) : void&lt;/div&gt;&lt;div&gt;+ UPGRADED_MOVINGROBOT() : string&lt;/div&gt;&lt;div&gt;+ UPGRADED_SHOOTINGROBOT() : string&lt;br&gt;+ UPGRADED_SEEINGROBOT() : string&lt;br&gt;+ PREV_KILL() : bool&lt;br&gt;+ setPREV_KILL( a : bool) : void&lt;/div&gt;&lt;div&gt;+ IS_WAITING : bool&lt;/div&gt;&lt;div&gt;+ setIS_WAITING(val : bool) : void&lt;/div&gt;&lt;div&gt;# setLocation(locPtr : location *) : void&lt;/div&gt;&lt;div&gt;&lt;br&gt;&lt;/div&gt;" style="text;fillColor=none;align=left;verticalAlign=top;spacingLeft=4;spacingRight=4;overflow=hidden;rotatable=0;points=[[0,0.5],[1,0.5]];portConstraint=eastwest;whiteSpace=wrap;html=1;labelBackgroundColor=none;labelBorderColor=none;" parent="tIdZeXWYgV82YrUBsXAL-1" vertex="1">
          <mxGeometry y="238" width="360" height="512" as="geometry" />
        </mxCell>
        <mxCell id="ncXmUl3r5JDv5Fd3TMFn-1" value="Battlefield" style="swimlane;fontStyle=1;align=center;verticalAlign=top;childLayout=stackLayout;horizontal=1;startSize=26;horizontalStack=0;resizeParent=1;resizeParentMax=0;resizeLast=0;collapsible=1;marginBottom=0;whiteSpace=wrap;html=1;labelBackgroundColor=none;labelBorderColor=none;" parent="1" vertex="1">
          <mxGeometry x="725" y="120" width="310" height="600" as="geometry" />
        </mxCell>
        <mxCell id="ncXmUl3r5JDv5Fd3TMFn-2" value="&lt;div&gt;+ field: type&lt;br&gt;- BATTLEFIELD_NUM_OF_COLS_ : int&lt;/div&gt;&lt;div&gt;- BATTLEFIELD_NUM_OF_ROWS_ : int&lt;br&gt;- turns_ : int&amp;nbsp;&lt;/div&gt;&lt;div&gt;- turn :&amp;nbsp;int&lt;/div&gt;&lt;div&gt;- numOfRobots_ : int&lt;/div&gt;&lt;div&gt;- robots_ : vector&amp;lt;Robot *&amp;gt;&lt;br&gt;- destroyedRobots_ : queue&amp;lt;Robot *&amp;gt;&lt;br&gt;- waitingRobots_ : queue&amp;lt;Robot *&amp;gt;&lt;br&gt;- battlefield_&amp;nbsp; : vector&amp;lt;vector&amp;lt;string&amp;gt;&amp;gt;&lt;/div&gt;&lt;div&gt;- MovingRobotUpgrades : const vector&amp;lt;string&amp;gt; &lt;br&gt;&lt;/div&gt;&lt;div&gt;- ShootingRobotUpgrades : const vector&amp;lt;string&amp;gt;&lt;/div&gt;&lt;div&gt;- SeeingRobotUpgrades : const vector&amp;lt;string&amp;gt;&lt;/div&gt;" style="text;fillColor=none;align=left;verticalAlign=top;spacingLeft=4;spacingRight=4;overflow=hidden;rotatable=0;points=[[0,0.5],[1,0.5]];portConstraint=eastwest;whiteSpace=wrap;html=1;labelBackgroundColor=none;labelBorderColor=none;" parent="ncXmUl3r5JDv5Fd3TMFn-1" vertex="1">
          <mxGeometry y="26" width="310" height="194" as="geometry" />
        </mxCell>
        <mxCell id="ncXmUl3r5JDv5Fd3TMFn-3" value="" style="line;strokeWidth=1;fillColor=none;align=left;verticalAlign=middle;spacingTop=-1;spacingLeft=3;spacingRight=3;rotatable=0;labelPosition=right;points=[];portConstraint=eastwest;labelBackgroundColor=none;labelBorderColor=none;" parent="ncXmUl3r5JDv5Fd3TMFn-1" vertex="1">
          <mxGeometry y="220" width="310" height="8" as="geometry" />
        </mxCell>
        <mxCell id="ncXmUl3r5JDv5Fd3TMFn-4" value="+ method(type): type&lt;br&gt;+ Battlefield()&lt;br&gt;+ ~Battlefield()&lt;br&gt;+ Battlefield(other : const Battlefield &amp;amp;)&lt;br&gt;+ operator=(other : const Battlefield &amp;amp;) : Battlefield &amp;amp;&lt;br&gt;+ MAIN() : void&lt;br&gt;+ BATTLEFIELD_NUM_OF_COLS() : int&lt;br&gt;+ BATTLEFIELD_NUM_OF_ROWS() : int&lt;br&gt;+ turns() : int&lt;br&gt;+ numOfRobots() : int&lt;br&gt;+ readFile(filename : string ) : void&lt;br&gt;+ placeRobots() : void&lt;br&gt;&lt;div&gt;+ displayBattlefield() : void&lt;/div&gt;&lt;div&gt;+ peek(x : int, y : int) : string const&lt;/div&gt;&lt;div&gt;+ isValidMoveLocation(x : int, y : int) : bool const&lt;/div&gt;&lt;div&gt;+ isValidFireLocation(x : int, y : int, nullptr : *rbt Robot) : bool&lt;/div&gt;&lt;div&gt;+ setRobots(vtrRbts : vector&amp;lt;Robot *&amp;gt;) : void&lt;/div&gt;&lt;div&gt;+ findRobotById(id : string) : Robot*&lt;/div&gt;&lt;div&gt;+ strike (x : int, y : int, successPercent : int, bot : Robot*) : bool&lt;/div&gt;&lt;div&gt;+ selfDestruct(bot : Robot*) : void&lt;/div&gt;&lt;div&gt;+ upgrade(botIter : vector&amp;lt;Robot *&amp;gt;::iterator) : void&lt;/div&gt;&lt;div&gt;+ respawnWaiting() : void&lt;/div&gt;&lt;div&gt;+ justifyIter(robots_Iter : vector&amp;lt;Robot *&amp;gt;::iterator&amp;amp;)&lt;/div&gt;" style="text;fillColor=none;align=left;verticalAlign=top;spacingLeft=4;spacingRight=4;overflow=hidden;rotatable=0;points=[[0,0.5],[1,0.5]];portConstraint=eastwest;whiteSpace=wrap;html=1;labelBackgroundColor=none;labelBorderColor=none;" parent="ncXmUl3r5JDv5Fd3TMFn-1" vertex="1">
          <mxGeometry y="228" width="310" height="372" as="geometry" />
        </mxCell>
        <mxCell id="oOBSI1VlpClQHZ700OyM-1" value="MovingRobot" style="swimlane;fontStyle=1;align=center;verticalAlign=top;childLayout=stackLayout;horizontal=1;startSize=26;horizontalStack=0;resizeParent=1;resizeParentMax=0;resizeLast=0;collapsible=1;marginBottom=0;whiteSpace=wrap;html=1;labelBackgroundColor=none;labelBorderColor=none;" parent="1" vertex="1">
          <mxGeometry x="490" y="920" width="400" height="210" as="geometry" />
        </mxCell>
        <mxCell id="oOBSI1VlpClQHZ700OyM-2" value="&lt;div&gt;+ field: type&lt;br&gt;# move_ : vector&amp;lt;location *&amp;gt;&lt;/div&gt;" style="text;fillColor=none;align=left;verticalAlign=top;spacingLeft=4;spacingRight=4;overflow=hidden;rotatable=0;points=[[0,0.5],[1,0.5]];portConstraint=eastwest;whiteSpace=wrap;html=1;labelBackgroundColor=none;labelBorderColor=none;" parent="oOBSI1VlpClQHZ700OyM-1" vertex="1">
          <mxGeometry y="26" width="400" height="44" as="geometry" />
        </mxCell>
        <mxCell id="oOBSI1VlpClQHZ700OyM-3" value="" style="line;strokeWidth=1;fillColor=none;align=left;verticalAlign=middle;spacingTop=-1;spacingLeft=3;spacingRight=3;rotatable=0;labelPosition=right;points=[];portConstraint=eastwest;labelBackgroundColor=none;labelBorderColor=none;" parent="oOBSI1VlpClQHZ700OyM-1" vertex="1">
          <mxGeometry y="70" width="400" height="8" as="geometry" />
        </mxCell>
        <mxCell id="oOBSI1VlpClQHZ700OyM-4" value="&lt;div&gt;+ method(type): type&lt;/div&gt;&lt;div&gt;+ MovingRobot()&lt;/div&gt;&lt;div&gt;+ ~MovingRobot()&lt;/div&gt;&lt;div&gt;+ MovingRobot(other : const Robot &amp;amp;)&lt;/div&gt;&lt;div&gt;+ operator=(other : const Robot &amp;amp;) : MovingRobot &amp;amp;&lt;/div&gt;+ actionMove(battlefield : Battlefield *) : void&lt;br&gt;&lt;div&gt;# moveStartCols() : int&lt;/div&gt;&lt;div&gt;# moveStartRows() : int&lt;/div&gt;" style="text;fillColor=none;align=left;verticalAlign=top;spacingLeft=4;spacingRight=4;overflow=hidden;rotatable=0;points=[[0,0.5],[1,0.5]];portConstraint=eastwest;whiteSpace=wrap;html=1;labelBackgroundColor=none;labelBorderColor=none;" parent="oOBSI1VlpClQHZ700OyM-1" vertex="1">
          <mxGeometry y="78" width="400" height="132" as="geometry" />
        </mxCell>
        <mxCell id="oOBSI1VlpClQHZ700OyM-5" value="SeeingRobot" style="swimlane;fontStyle=1;align=center;verticalAlign=top;childLayout=stackLayout;horizontal=1;startSize=26;horizontalStack=0;resizeParent=1;resizeParentMax=0;resizeLast=0;collapsible=1;marginBottom=0;whiteSpace=wrap;html=1;labelBackgroundColor=none;labelBorderColor=none;" parent="1" vertex="1">
          <mxGeometry x="1010" y="920" width="400" height="210" as="geometry" />
        </mxCell>
        <mxCell id="oOBSI1VlpClQHZ700OyM-6" value="&lt;div&gt;+ field: type&lt;/div&gt;&lt;div&gt;# view_ : vector&amp;lt;location *&amp;gt;&lt;/div&gt;" style="text;fillColor=none;align=left;verticalAlign=top;spacingLeft=4;spacingRight=4;overflow=hidden;rotatable=0;points=[[0,0.5],[1,0.5]];portConstraint=eastwest;whiteSpace=wrap;html=1;labelBackgroundColor=none;labelBorderColor=none;" parent="oOBSI1VlpClQHZ700OyM-5" vertex="1">
          <mxGeometry y="26" width="400" height="44" as="geometry" />
        </mxCell>
        <mxCell id="oOBSI1VlpClQHZ700OyM-7" value="" style="line;strokeWidth=1;fillColor=none;align=left;verticalAlign=middle;spacingTop=-1;spacingLeft=3;spacingRight=3;rotatable=0;labelPosition=right;points=[];portConstraint=eastwest;labelBackgroundColor=none;labelBorderColor=none;" parent="oOBSI1VlpClQHZ700OyM-5" vertex="1">
          <mxGeometry y="70" width="400" height="8" as="geometry" />
        </mxCell>
        <mxCell id="oOBSI1VlpClQHZ700OyM-8" value="&lt;div&gt;+ method(type): type&lt;/div&gt;&lt;div&gt;+ SeeingRobot();&lt;/div&gt;&lt;div&gt;+ ~SeeingRobot()&lt;br&gt;&lt;div&gt;+ SeeingRobot(other : const Robot &amp;amp;)&lt;/div&gt;&lt;div&gt;+ operator=(other : const Robot &amp;amp;) : SeeingRobot &amp;amp;&lt;/div&gt;&lt;/div&gt;&lt;div&gt;+ actionLook(battlefield : Battlefield *) : void&amp;nbsp;&lt;/div&gt;&lt;div&gt;# viewStartCols() : int&lt;/div&gt;&lt;div&gt;# viewStartRows() : int&lt;/div&gt;" style="text;fillColor=none;align=left;verticalAlign=top;spacingLeft=4;spacingRight=4;overflow=hidden;rotatable=0;points=[[0,0.5],[1,0.5]];portConstraint=eastwest;whiteSpace=wrap;html=1;labelBackgroundColor=none;labelBorderColor=none;" parent="oOBSI1VlpClQHZ700OyM-5" vertex="1">
          <mxGeometry y="78" width="400" height="132" as="geometry" />
        </mxCell>
        <mxCell id="oOBSI1VlpClQHZ700OyM-9" value="ShootingRobot" style="swimlane;fontStyle=1;align=center;verticalAlign=top;childLayout=stackLayout;horizontal=1;startSize=26;horizontalStack=0;resizeParent=1;resizeParentMax=0;resizeLast=0;collapsible=1;marginBottom=0;whiteSpace=wrap;html=1;labelBackgroundColor=none;labelBorderColor=none;" parent="1" vertex="1">
          <mxGeometry x="1530" y="920" width="400" height="240" as="geometry" />
        </mxCell>
        <mxCell id="oOBSI1VlpClQHZ700OyM-10" value="&lt;div&gt;+ field: type&lt;/div&gt;&lt;div&gt;# SHELL_COUNT : int&lt;/div&gt;&lt;div&gt;# SHOOT_SUCCESS_PERCENTAGE : int&lt;/div&gt;&lt;div&gt;# shoot_ : vector&amp;lt;location *&amp;gt;&lt;/div&gt;&lt;div&gt;&lt;br&gt;&lt;/div&gt;" style="text;fillColor=none;align=left;verticalAlign=top;spacingLeft=4;spacingRight=4;overflow=hidden;rotatable=0;points=[[0,0.5],[1,0.5]];portConstraint=eastwest;whiteSpace=wrap;html=1;labelBackgroundColor=none;labelBorderColor=none;" parent="oOBSI1VlpClQHZ700OyM-9" vertex="1">
          <mxGeometry y="26" width="400" height="74" as="geometry" />
        </mxCell>
        <mxCell id="oOBSI1VlpClQHZ700OyM-11" value="" style="line;strokeWidth=1;fillColor=none;align=left;verticalAlign=middle;spacingTop=-1;spacingLeft=3;spacingRight=3;rotatable=0;labelPosition=right;points=[];portConstraint=eastwest;labelBackgroundColor=none;labelBorderColor=none;" parent="oOBSI1VlpClQHZ700OyM-9" vertex="1">
          <mxGeometry y="100" width="400" height="8" as="geometry" />
        </mxCell>
        <mxCell id="oOBSI1VlpClQHZ700OyM-12" value="&lt;div&gt;+ method(type): type&lt;/div&gt;+ ShootingRobot();&lt;br&gt;&lt;div&gt;+ ~ShootingRobot()&lt;/div&gt;&lt;div&gt;&lt;div&gt;+ ShootingRobot(other : const Robot &amp;amp;)&lt;/div&gt;&lt;div&gt;+ operator=(other : const Robot &amp;amp;) : ShootingRobot &amp;amp;&lt;/div&gt;&lt;/div&gt;&lt;div&gt;+ actionFire(battlefield : Battlefield *) : void&lt;/div&gt;&lt;div&gt;# shootStartCols() : int&lt;/div&gt;&lt;div&gt;# shootStartRows() : int&lt;/div&gt;&lt;div&gt;&lt;br&gt;&lt;/div&gt;" style="text;fillColor=none;align=left;verticalAlign=top;spacingLeft=4;spacingRight=4;overflow=hidden;rotatable=0;points=[[0,0.5],[1,0.5]];portConstraint=eastwest;whiteSpace=wrap;html=1;labelBackgroundColor=none;labelBorderColor=none;" parent="oOBSI1VlpClQHZ700OyM-9" vertex="1">
          <mxGeometry y="108" width="400" height="132" as="geometry" />
        </mxCell>
        <mxCell id="oOBSI1VlpClQHZ700OyM-13" value="ThinkingRobot" style="swimlane;fontStyle=1;align=center;verticalAlign=top;childLayout=stackLayout;horizontal=1;startSize=26;horizontalStack=0;resizeParent=1;resizeParentMax=0;resizeLast=0;collapsible=1;marginBottom=0;whiteSpace=wrap;html=1;labelBackgroundColor=none;labelBorderColor=none;" parent="1" vertex="1">
          <mxGeometry x="2050" y="920" width="400" height="160" as="geometry" />
        </mxCell>
        <mxCell id="oOBSI1VlpClQHZ700OyM-14" value="&lt;div&gt;+ field: type&lt;/div&gt;&lt;div&gt;&lt;br&gt;&lt;/div&gt;&lt;div&gt;&lt;br&gt;&lt;/div&gt;" style="text;fillColor=none;align=left;verticalAlign=top;spacingLeft=4;spacingRight=4;overflow=hidden;rotatable=0;points=[[0,0.5],[1,0.5]];portConstraint=eastwest;whiteSpace=wrap;html=1;labelBackgroundColor=none;labelBorderColor=none;" parent="oOBSI1VlpClQHZ700OyM-13" vertex="1">
          <mxGeometry y="26" width="400" height="24" as="geometry" />
        </mxCell>
        <mxCell id="oOBSI1VlpClQHZ700OyM-15" value="" style="line;strokeWidth=1;fillColor=none;align=left;verticalAlign=middle;spacingTop=-1;spacingLeft=3;spacingRight=3;rotatable=0;labelPosition=right;points=[];portConstraint=eastwest;labelBackgroundColor=none;labelBorderColor=none;" parent="oOBSI1VlpClQHZ700OyM-13" vertex="1">
          <mxGeometry y="50" width="400" height="8" as="geometry" />
        </mxCell>
        <mxCell id="oOBSI1VlpClQHZ700OyM-16" value="&lt;div&gt;+ method(type): type&lt;/div&gt;&lt;div&gt;+ ThinkingRobot();&lt;/div&gt;&lt;div&gt;+ ~ThinkingRobot()&lt;/div&gt;&lt;div&gt;&lt;div&gt;&lt;div&gt;+ ThinkingRobot(other : const Robot &amp;amp;)&lt;/div&gt;&lt;div&gt;+ operator=(other : const Robot &amp;amp;) : ThinkingRobot &amp;amp;&lt;/div&gt;&lt;/div&gt;&lt;/div&gt;&lt;div&gt;+ actionThink(battlefield : Battlefield *) : void&lt;/div&gt;" style="text;fillColor=none;align=left;verticalAlign=top;spacingLeft=4;spacingRight=4;overflow=hidden;rotatable=0;points=[[0,0.5],[1,0.5]];portConstraint=eastwest;whiteSpace=wrap;html=1;labelBackgroundColor=none;labelBorderColor=none;" parent="oOBSI1VlpClQHZ700OyM-13" vertex="1">
          <mxGeometry y="58" width="400" height="102" as="geometry" />
        </mxCell>
        <mxCell id="tBobR_7DxXMw_WLZoEAN-1" value="JumpBot" style="swimlane;fontStyle=1;align=center;verticalAlign=top;childLayout=stackLayout;horizontal=1;startSize=26;horizontalStack=0;resizeParent=1;resizeParentMax=0;resizeLast=0;collapsible=1;marginBottom=0;whiteSpace=wrap;html=1;labelBackgroundColor=none;labelBorderColor=none;" parent="1" vertex="1">
          <mxGeometry x="740" y="1956" width="400" height="200" as="geometry" />
        </mxCell>
        <mxCell id="tBobR_7DxXMw_WLZoEAN-2" value="&lt;div&gt;+ field: type&lt;/div&gt;# SUPERJUMP_COUNT : int" style="text;fillColor=none;align=left;verticalAlign=top;spacingLeft=4;spacingRight=4;overflow=hidden;rotatable=0;points=[[0,0.5],[1,0.5]];portConstraint=eastwest;whiteSpace=wrap;html=1;labelBackgroundColor=none;labelBorderColor=none;" parent="tBobR_7DxXMw_WLZoEAN-1" vertex="1">
          <mxGeometry y="26" width="400" height="34" as="geometry" />
        </mxCell>
        <mxCell id="tBobR_7DxXMw_WLZoEAN-3" value="" style="line;strokeWidth=1;fillColor=none;align=left;verticalAlign=middle;spacingTop=-1;spacingLeft=3;spacingRight=3;rotatable=0;labelPosition=right;points=[];portConstraint=eastwest;labelBackgroundColor=none;labelBorderColor=none;" parent="tBobR_7DxXMw_WLZoEAN-1" vertex="1">
          <mxGeometry y="60" width="400" height="8" as="geometry" />
        </mxCell>
        <mxCell id="tBobR_7DxXMw_WLZoEAN-4" value="&lt;div&gt;+ method(type): type&lt;/div&gt;&lt;div&gt;+&amp;nbsp;JumpBot()&lt;/div&gt;&lt;div&gt;+ ~JumpBot()&lt;/div&gt;&lt;div&gt;&lt;div&gt;&lt;div&gt;+ JumpBot(other : const Robot &amp;amp;)&lt;/div&gt;&lt;div&gt;+ operator=(other : const Robot &amp;amp;) : JumpBot&lt;/div&gt;&lt;/div&gt;&lt;/div&gt;+ actionMove(battlefield : Battlefield *) : void&lt;br&gt;&lt;div&gt;# moveStartCols() : int&lt;/div&gt;&lt;div&gt;# moveStartRows() : int&lt;/div&gt;" style="text;fillColor=none;align=left;verticalAlign=top;spacingLeft=4;spacingRight=4;overflow=hidden;rotatable=0;points=[[0,0.5],[1,0.5]];portConstraint=eastwest;whiteSpace=wrap;html=1;labelBackgroundColor=none;labelBorderColor=none;" parent="tBobR_7DxXMw_WLZoEAN-1" vertex="1">
          <mxGeometry y="68" width="400" height="132" as="geometry" />
        </mxCell>
        <mxCell id="tBobR_7DxXMw_WLZoEAN-5" value="HideBot" style="swimlane;fontStyle=1;align=center;verticalAlign=top;childLayout=stackLayout;horizontal=1;startSize=26;horizontalStack=0;resizeParent=1;resizeParentMax=0;resizeLast=0;collapsible=1;marginBottom=0;whiteSpace=wrap;html=1;labelBackgroundColor=none;labelBorderColor=none;" parent="1" vertex="1">
          <mxGeometry x="670" y="1742" width="400" height="200" as="geometry" />
        </mxCell>
        <mxCell id="tBobR_7DxXMw_WLZoEAN-6" value="&lt;div&gt;+ field: type&lt;/div&gt;&lt;div&gt;# isHidden : bool&lt;/div&gt;&lt;div&gt;# HIDE_COUNT : int&lt;/div&gt;" style="text;fillColor=none;align=left;verticalAlign=top;spacingLeft=4;spacingRight=4;overflow=hidden;rotatable=0;points=[[0,0.5],[1,0.5]];portConstraint=eastwest;whiteSpace=wrap;html=1;labelBackgroundColor=none;labelBorderColor=none;" parent="tBobR_7DxXMw_WLZoEAN-5" vertex="1">
          <mxGeometry y="26" width="400" height="54" as="geometry" />
        </mxCell>
        <mxCell id="tBobR_7DxXMw_WLZoEAN-7" value="" style="line;strokeWidth=1;fillColor=none;align=left;verticalAlign=middle;spacingTop=-1;spacingLeft=3;spacingRight=3;rotatable=0;labelPosition=right;points=[];portConstraint=eastwest;labelBackgroundColor=none;labelBorderColor=none;" parent="tBobR_7DxXMw_WLZoEAN-5" vertex="1">
          <mxGeometry y="80" width="400" height="8" as="geometry" />
        </mxCell>
        <mxCell id="tBobR_7DxXMw_WLZoEAN-8" value="&lt;div&gt;+ method(type): type&lt;/div&gt;&lt;div&gt;+ HideBot(id: string, x : int, y : int)&lt;/div&gt;&lt;div&gt;+ ~HideBot()&lt;/div&gt;&lt;div&gt;&lt;div&gt;+ HideBot(other : const Robot &amp;amp;)&lt;/div&gt;&lt;div&gt;+ operator=(other : const Robot &amp;amp;) : HideBot&lt;/div&gt;&lt;/div&gt;&lt;div&gt;+ actionMove(battlefield : Battlefield *) : void&lt;/div&gt;&lt;div&gt;+ id() : string&lt;/div&gt;" style="text;fillColor=none;align=left;verticalAlign=top;spacingLeft=4;spacingRight=4;overflow=hidden;rotatable=0;points=[[0,0.5],[1,0.5]];portConstraint=eastwest;whiteSpace=wrap;html=1;labelBackgroundColor=none;labelBorderColor=none;" parent="tBobR_7DxXMw_WLZoEAN-5" vertex="1">
          <mxGeometry y="88" width="400" height="112" as="geometry" />
        </mxCell>
        <mxCell id="tBobR_7DxXMw_WLZoEAN-9" value="LongShotBot" style="swimlane;fontStyle=1;align=center;verticalAlign=top;childLayout=stackLayout;horizontal=1;startSize=26;horizontalStack=0;resizeParent=1;resizeParentMax=0;resizeLast=0;collapsible=1;marginBottom=0;whiteSpace=wrap;html=1;labelBackgroundColor=none;labelBorderColor=none;" parent="1" vertex="1">
          <mxGeometry x="1890" y="1730" width="320" height="200" as="geometry" />
        </mxCell>
        <mxCell id="tBobR_7DxXMw_WLZoEAN-10" value="&lt;div&gt;+ field: type&lt;/div&gt;&lt;div&gt;&lt;br&gt;&lt;/div&gt;" style="text;fillColor=none;align=left;verticalAlign=top;spacingLeft=4;spacingRight=4;overflow=hidden;rotatable=0;points=[[0,0.5],[1,0.5]];portConstraint=eastwest;whiteSpace=wrap;html=1;labelBackgroundColor=none;labelBorderColor=none;" parent="tBobR_7DxXMw_WLZoEAN-9" vertex="1">
          <mxGeometry y="26" width="320" height="34" as="geometry" />
        </mxCell>
        <mxCell id="tBobR_7DxXMw_WLZoEAN-11" value="" style="line;strokeWidth=1;fillColor=none;align=left;verticalAlign=middle;spacingTop=-1;spacingLeft=3;spacingRight=3;rotatable=0;labelPosition=right;points=[];portConstraint=eastwest;labelBackgroundColor=none;labelBorderColor=none;" parent="tBobR_7DxXMw_WLZoEAN-9" vertex="1">
          <mxGeometry y="60" width="320" height="8" as="geometry" />
        </mxCell>
        <mxCell id="tBobR_7DxXMw_WLZoEAN-12" value="&lt;div&gt;+ method(type): type&lt;/div&gt;+&amp;nbsp;LongShotBot();&lt;br&gt;&lt;div&gt;+ ~LongShotBot()&lt;/div&gt;&lt;div&gt;&lt;div&gt;&lt;div&gt;&lt;div&gt;&lt;div&gt;+ LongShotBot(other : const Robot &amp;amp;)&lt;/div&gt;&lt;div&gt;+ operator=(other : const Robot &amp;amp;) : LongShotBot&lt;/div&gt;&lt;/div&gt;&lt;/div&gt;&lt;/div&gt;&lt;/div&gt;&lt;div&gt;+ actionFire(battlefield : Battlefield *) : void&lt;/div&gt;&lt;div&gt;# shootStartCols() : int&lt;/div&gt;&lt;div&gt;# shootStartRows() : int&lt;/div&gt;" style="text;fillColor=none;align=left;verticalAlign=top;spacingLeft=4;spacingRight=4;overflow=hidden;rotatable=0;points=[[0,0.5],[1,0.5]];portConstraint=eastwest;whiteSpace=wrap;html=1;labelBackgroundColor=none;labelBorderColor=none;" parent="tBobR_7DxXMw_WLZoEAN-9" vertex="1">
          <mxGeometry y="68" width="320" height="132" as="geometry" />
        </mxCell>
        <mxCell id="tBobR_7DxXMw_WLZoEAN-13" value="SemiAutoBot" style="swimlane;fontStyle=1;align=center;verticalAlign=top;childLayout=stackLayout;horizontal=1;startSize=26;horizontalStack=0;resizeParent=1;resizeParentMax=0;resizeLast=0;collapsible=1;marginBottom=0;whiteSpace=wrap;html=1;labelBackgroundColor=none;labelBorderColor=none;" parent="1" vertex="1">
          <mxGeometry x="1830" y="1956" width="320" height="180" as="geometry" />
        </mxCell>
        <mxCell id="tBobR_7DxXMw_WLZoEAN-14" value="&lt;div&gt;+ field: type&lt;/div&gt;&lt;div&gt;&lt;br&gt;&lt;/div&gt;" style="text;fillColor=none;align=left;verticalAlign=top;spacingLeft=4;spacingRight=4;overflow=hidden;rotatable=0;points=[[0,0.5],[1,0.5]];portConstraint=eastwest;whiteSpace=wrap;html=1;labelBackgroundColor=none;labelBorderColor=none;" parent="tBobR_7DxXMw_WLZoEAN-13" vertex="1">
          <mxGeometry y="26" width="320" height="34" as="geometry" />
        </mxCell>
        <mxCell id="tBobR_7DxXMw_WLZoEAN-15" value="" style="line;strokeWidth=1;fillColor=none;align=left;verticalAlign=middle;spacingTop=-1;spacingLeft=3;spacingRight=3;rotatable=0;labelPosition=right;points=[];portConstraint=eastwest;labelBackgroundColor=none;labelBorderColor=none;" parent="tBobR_7DxXMw_WLZoEAN-13" vertex="1">
          <mxGeometry y="60" width="320" height="8" as="geometry" />
        </mxCell>
        <mxCell id="tBobR_7DxXMw_WLZoEAN-16" value="&lt;div&gt;+ method(type): type&lt;/div&gt;+&amp;nbsp;SemiAutoBot();&lt;br&gt;&lt;div&gt;+ ~SemiAutoBot()&lt;/div&gt;&lt;div&gt;&lt;div&gt;&lt;div&gt;&lt;div&gt;&lt;div&gt;&lt;div&gt;+ SemiAutoBot(other : const Robot &amp;amp;)&lt;/div&gt;&lt;div&gt;+ operator=(other : const Robot &amp;amp;) : SemiAutoBot&lt;/div&gt;&lt;/div&gt;&lt;/div&gt;&lt;/div&gt;&lt;/div&gt;&lt;/div&gt;&lt;div&gt;+ actionFire(battlefield : Battlefield *) : void&lt;/div&gt;" style="text;fillColor=none;align=left;verticalAlign=top;spacingLeft=4;spacingRight=4;overflow=hidden;rotatable=0;points=[[0,0.5],[1,0.5]];portConstraint=eastwest;whiteSpace=wrap;html=1;labelBackgroundColor=none;labelBorderColor=none;" parent="tBobR_7DxXMw_WLZoEAN-13" vertex="1">
          <mxGeometry y="68" width="320" height="112" as="geometry" />
        </mxCell>
        <mxCell id="tBobR_7DxXMw_WLZoEAN-17" value="ThirtyShotBot" style="swimlane;fontStyle=1;align=center;verticalAlign=top;childLayout=stackLayout;horizontal=1;startSize=26;horizontalStack=0;resizeParent=1;resizeParentMax=0;resizeLast=0;collapsible=1;marginBottom=0;whiteSpace=wrap;html=1;labelBackgroundColor=none;labelBorderColor=none;" parent="1" vertex="1">
          <mxGeometry x="1800" y="2146" width="320" height="180" as="geometry" />
        </mxCell>
        <mxCell id="tBobR_7DxXMw_WLZoEAN-18" value="&lt;div&gt;+ field: type&lt;/div&gt;&lt;div&gt;&lt;br&gt;&lt;/div&gt;" style="text;fillColor=none;align=left;verticalAlign=top;spacingLeft=4;spacingRight=4;overflow=hidden;rotatable=0;points=[[0,0.5],[1,0.5]];portConstraint=eastwest;whiteSpace=wrap;html=1;labelBackgroundColor=none;labelBorderColor=none;" parent="tBobR_7DxXMw_WLZoEAN-17" vertex="1">
          <mxGeometry y="26" width="320" height="34" as="geometry" />
        </mxCell>
        <mxCell id="tBobR_7DxXMw_WLZoEAN-19" value="" style="line;strokeWidth=1;fillColor=none;align=left;verticalAlign=middle;spacingTop=-1;spacingLeft=3;spacingRight=3;rotatable=0;labelPosition=right;points=[];portConstraint=eastwest;labelBackgroundColor=none;labelBorderColor=none;" parent="tBobR_7DxXMw_WLZoEAN-17" vertex="1">
          <mxGeometry y="60" width="320" height="8" as="geometry" />
        </mxCell>
        <mxCell id="tBobR_7DxXMw_WLZoEAN-20" value="&lt;div&gt;+ method(type): type&lt;/div&gt;+ ThirtyShotBot();&lt;br&gt;&lt;div&gt;+ ~ThirtyShotBot()&lt;/div&gt;&lt;div&gt;&lt;div&gt;&lt;div&gt;&lt;div&gt;&lt;div&gt;&lt;div&gt;+ ThirtyShotBot(other : const Robot &amp;amp;)&lt;/div&gt;&lt;div&gt;+ operator=(other : const Robot &amp;amp;) : ThirtyShotBot&lt;/div&gt;&lt;/div&gt;&lt;/div&gt;&lt;/div&gt;&lt;/div&gt;&lt;/div&gt;&lt;div&gt;+ actionFire(battlefield : Battlefield *) : void&lt;/div&gt;" style="text;fillColor=none;align=left;verticalAlign=top;spacingLeft=4;spacingRight=4;overflow=hidden;rotatable=0;points=[[0,0.5],[1,0.5]];portConstraint=eastwest;whiteSpace=wrap;html=1;labelBackgroundColor=none;labelBorderColor=none;" parent="tBobR_7DxXMw_WLZoEAN-17" vertex="1">
          <mxGeometry y="68" width="320" height="112" as="geometry" />
        </mxCell>
        <mxCell id="tBobR_7DxXMw_WLZoEAN-21" value="ScoutBot" style="swimlane;fontStyle=1;align=center;verticalAlign=top;childLayout=stackLayout;horizontal=1;startSize=26;horizontalStack=0;resizeParent=1;resizeParentMax=0;resizeLast=0;collapsible=1;marginBottom=0;whiteSpace=wrap;html=1;labelBackgroundColor=none;labelBorderColor=none;" parent="1" vertex="1">
          <mxGeometry x="1310" y="1742" width="320" height="200" as="geometry" />
        </mxCell>
        <mxCell id="tBobR_7DxXMw_WLZoEAN-22" value="&lt;div&gt;+ field: type&lt;/div&gt;&lt;div&gt;&lt;br&gt;&lt;/div&gt;" style="text;fillColor=none;align=left;verticalAlign=top;spacingLeft=4;spacingRight=4;overflow=hidden;rotatable=0;points=[[0,0.5],[1,0.5]];portConstraint=eastwest;whiteSpace=wrap;html=1;labelBackgroundColor=none;labelBorderColor=none;" parent="tBobR_7DxXMw_WLZoEAN-21" vertex="1">
          <mxGeometry y="26" width="320" height="34" as="geometry" />
        </mxCell>
        <mxCell id="tBobR_7DxXMw_WLZoEAN-23" value="" style="line;strokeWidth=1;fillColor=none;align=left;verticalAlign=middle;spacingTop=-1;spacingLeft=3;spacingRight=3;rotatable=0;labelPosition=right;points=[];portConstraint=eastwest;labelBackgroundColor=none;labelBorderColor=none;" parent="tBobR_7DxXMw_WLZoEAN-21" vertex="1">
          <mxGeometry y="60" width="320" height="8" as="geometry" />
        </mxCell>
        <mxCell id="tBobR_7DxXMw_WLZoEAN-24" value="&lt;div&gt;+ method(type): type&lt;/div&gt;&lt;div&gt;+&amp;nbsp;ScoutBot();&lt;/div&gt;&lt;div&gt;+ ~ScoutBot()&lt;/div&gt;&lt;div&gt;&lt;div&gt;&lt;div&gt;+ ScoutBot(other : const Robot &amp;amp;)&lt;/div&gt;&lt;div&gt;+ operator=(other : const Robot &amp;amp;) : ScoutBot&lt;/div&gt;&lt;/div&gt;&lt;/div&gt;&lt;div&gt;+ actionLook(battlefield : Battlefield *) : void&lt;/div&gt;&lt;div&gt;# viewStartCols() : int&lt;/div&gt;&lt;div&gt;# viewStartRows() : int&lt;/div&gt;" style="text;fillColor=none;align=left;verticalAlign=top;spacingLeft=4;spacingRight=4;overflow=hidden;rotatable=0;points=[[0,0.5],[1,0.5]];portConstraint=eastwest;whiteSpace=wrap;html=1;labelBackgroundColor=none;labelBorderColor=none;" parent="tBobR_7DxXMw_WLZoEAN-21" vertex="1">
          <mxGeometry y="68" width="320" height="132" as="geometry" />
        </mxCell>
        <mxCell id="tBobR_7DxXMw_WLZoEAN-25" value="TrackBot" style="swimlane;fontStyle=1;align=center;verticalAlign=top;childLayout=stackLayout;horizontal=1;startSize=26;horizontalStack=0;resizeParent=1;resizeParentMax=0;resizeLast=0;collapsible=1;marginBottom=0;whiteSpace=wrap;html=1;labelBackgroundColor=none;labelBorderColor=none;" parent="1" vertex="1">
          <mxGeometry x="1310" y="1992" width="320" height="200" as="geometry" />
        </mxCell>
        <mxCell id="tBobR_7DxXMw_WLZoEAN-26" value="&lt;div&gt;+ field: type&lt;/div&gt;&lt;div&gt;# trackedBots_ : vector&amp;lt;Robot *&amp;gt;&lt;/div&gt;" style="text;fillColor=none;align=left;verticalAlign=top;spacingLeft=4;spacingRight=4;overflow=hidden;rotatable=0;points=[[0,0.5],[1,0.5]];portConstraint=eastwest;whiteSpace=wrap;html=1;labelBackgroundColor=none;labelBorderColor=none;" parent="tBobR_7DxXMw_WLZoEAN-25" vertex="1">
          <mxGeometry y="26" width="320" height="34" as="geometry" />
        </mxCell>
        <mxCell id="tBobR_7DxXMw_WLZoEAN-27" value="" style="line;strokeWidth=1;fillColor=none;align=left;verticalAlign=middle;spacingTop=-1;spacingLeft=3;spacingRight=3;rotatable=0;labelPosition=right;points=[];portConstraint=eastwest;labelBackgroundColor=none;labelBorderColor=none;" parent="tBobR_7DxXMw_WLZoEAN-25" vertex="1">
          <mxGeometry y="60" width="320" height="8" as="geometry" />
        </mxCell>
        <mxCell id="tBobR_7DxXMw_WLZoEAN-28" value="&lt;div&gt;+ method(type): type&lt;/div&gt;&lt;div&gt;+ TrackBot();&lt;/div&gt;&lt;div&gt;+ ~TrackBot()&lt;/div&gt;&lt;div&gt;&lt;div&gt;&lt;div&gt;&lt;div&gt;+ TrackBot(other : const Robot &amp;amp;)&lt;/div&gt;&lt;div&gt;+ operator=(other : const Robot &amp;amp;) : TrackBot&lt;/div&gt;&lt;/div&gt;&lt;/div&gt;&lt;/div&gt;+ actionLook(battlefield : Battlefield *) : void" style="text;fillColor=none;align=left;verticalAlign=top;spacingLeft=4;spacingRight=4;overflow=hidden;rotatable=0;points=[[0,0.5],[1,0.5]];portConstraint=eastwest;whiteSpace=wrap;html=1;labelBackgroundColor=none;labelBorderColor=none;" parent="tBobR_7DxXMw_WLZoEAN-25" vertex="1">
          <mxGeometry y="68" width="320" height="132" as="geometry" />
        </mxCell>
        <mxCell id="tLeZWqOulFW5IObjpJU0-1" value="location" style="swimlane;fontStyle=1;align=center;verticalAlign=top;childLayout=stackLayout;horizontal=1;startSize=26;horizontalStack=0;resizeParent=1;resizeParentMax=0;resizeLast=0;collapsible=1;marginBottom=0;whiteSpace=wrap;html=1;labelBackgroundColor=none;labelBorderColor=none;" parent="1" vertex="1">
          <mxGeometry x="1800" y="250" width="360" height="220" as="geometry" />
        </mxCell>
        <mxCell id="tLeZWqOulFW5IObjpJU0-2" value="&lt;div&gt;+ field: type&lt;/div&gt;&lt;div&gt;locX : int&lt;/div&gt;&lt;div&gt;locY : int&lt;/div&gt;&lt;div&gt;value : string&lt;/div&gt;" style="text;fillColor=none;align=left;verticalAlign=top;spacingLeft=4;spacingRight=4;overflow=hidden;rotatable=0;points=[[0,0.5],[1,0.5]];portConstraint=eastwest;whiteSpace=wrap;html=1;labelBackgroundColor=none;labelBorderColor=none;" parent="tLeZWqOulFW5IObjpJU0-1" vertex="1">
          <mxGeometry y="26" width="360" height="64" as="geometry" />
        </mxCell>
        <mxCell id="tLeZWqOulFW5IObjpJU0-3" value="" style="line;strokeWidth=1;fillColor=none;align=left;verticalAlign=middle;spacingTop=-1;spacingLeft=3;spacingRight=3;rotatable=0;labelPosition=right;points=[];portConstraint=eastwest;labelBackgroundColor=none;labelBorderColor=none;" parent="tLeZWqOulFW5IObjpJU0-1" vertex="1">
          <mxGeometry y="90" width="360" height="8" as="geometry" />
        </mxCell>
        <mxCell id="tLeZWqOulFW5IObjpJU0-4" value="&lt;div&gt;+ method(type): type&lt;/div&gt;&lt;div&gt;locationRelativeDistanceChebyshev(locTarget : location *, nullptr = locObject : location *) : const int&lt;/div&gt;&lt;div&gt;locationRelativeDistanceTaxicab(locTarget : location *, nullptr = locObject : location *) : const int&lt;/div&gt;&lt;div&gt;locationSortVector(locvec : vector&amp;lt;location *&amp;gt; &amp;amp;, nullptr = locTarget : location *) : void&lt;/div&gt;&lt;div&gt;&lt;br&gt;&lt;/div&gt;&lt;div&gt;&lt;br&gt;&lt;/div&gt;" style="text;fillColor=none;align=left;verticalAlign=top;spacingLeft=4;spacingRight=4;overflow=hidden;rotatable=0;points=[[0,0.5],[1,0.5]];portConstraint=eastwest;whiteSpace=wrap;html=1;labelBackgroundColor=none;labelBorderColor=none;" parent="tLeZWqOulFW5IObjpJU0-1" vertex="1">
          <mxGeometry y="98" width="360" height="122" as="geometry" />
        </mxCell>
        <mxCell id="tLeZWqOulFW5IObjpJU0-7" value="GenericRobot" style="swimlane;fontStyle=1;align=center;verticalAlign=top;childLayout=stackLayout;horizontal=1;startSize=26;horizontalStack=0;resizeParent=1;resizeParentMax=0;resizeLast=0;collapsible=1;marginBottom=0;whiteSpace=wrap;html=1;labelBackgroundColor=none;labelBorderColor=none;" parent="1" vertex="1">
          <mxGeometry x="1280" y="1266" width="360" height="350" as="geometry" />
        </mxCell>
        <mxCell id="tLeZWqOulFW5IObjpJU0-8" value="&lt;div&gt;+ field: type&lt;/div&gt;&lt;div&gt;- robotAutoIncrementInt_ : int&lt;/div&gt;&lt;div&gt;&lt;br&gt;&lt;/div&gt;" style="text;fillColor=none;align=left;verticalAlign=top;spacingLeft=4;spacingRight=4;overflow=hidden;rotatable=0;points=[[0,0.5],[1,0.5]];portConstraint=eastwest;whiteSpace=wrap;html=1;labelBackgroundColor=none;labelBorderColor=none;" parent="tLeZWqOulFW5IObjpJU0-7" vertex="1">
          <mxGeometry y="26" width="360" height="44" as="geometry" />
        </mxCell>
        <mxCell id="tLeZWqOulFW5IObjpJU0-9" value="" style="line;strokeWidth=1;fillColor=none;align=left;verticalAlign=middle;spacingTop=-1;spacingLeft=3;spacingRight=3;rotatable=0;labelPosition=right;points=[];portConstraint=eastwest;labelBackgroundColor=none;labelBorderColor=none;" parent="tLeZWqOulFW5IObjpJU0-7" vertex="1">
          <mxGeometry y="70" width="360" height="8" as="geometry" />
        </mxCell>
        <mxCell id="tLeZWqOulFW5IObjpJU0-10" value="&lt;div&gt;+ method(type): type&lt;/div&gt;&lt;div&gt;+ GenericRobot(id : string, x : int, y : int)&lt;br&gt;+ ~GenericRobot()&lt;br&gt;+ GenericRobot(other : const Robot&amp;amp;)&lt;/div&gt;&lt;div&gt;+ operator=(other : const Robot &amp;amp;) : GenericRobot&lt;/div&gt;&lt;div&gt;+ robotAutoIncrementInt() : int&lt;/div&gt;&lt;div&gt;+ setLocation(x : int&amp;nbsp; y : int) : void&lt;/div&gt;&lt;div&gt;+ actionThink(battlefield : Battlefield *) : void&lt;/div&gt;&lt;div&gt;+ actionLook(battlefield : Battlefield *); : void&lt;/div&gt;&lt;div&gt;+ actionFire(battlefield : Battlefield *) : void&amp;nbsp;&lt;/div&gt;&lt;div&gt;+ actionMove(battlefield : Battlefield *) : void&lt;/div&gt;&lt;div&gt;+ actions(battlefield : Battlefield *) : void&lt;/div&gt;&lt;div&gt;# viewStartCols()&amp;nbsp; : int&lt;/div&gt;&lt;div&gt;# viewStartRows() : int&lt;/div&gt;&lt;div&gt;# moveStartCols() : int&lt;/div&gt;&lt;div&gt;# moveStartRows() : int&lt;/div&gt;&lt;div&gt;&lt;div&gt;# shootStartCols() : int&lt;/div&gt;&lt;div&gt;# shootStartRows() : int&lt;/div&gt;&lt;br&gt;&lt;/div&gt;" style="text;fillColor=none;align=left;verticalAlign=top;spacingLeft=4;spacingRight=4;overflow=hidden;rotatable=0;points=[[0,0.5],[1,0.5]];portConstraint=eastwest;whiteSpace=wrap;html=1;labelBackgroundColor=none;labelBorderColor=none;" parent="tLeZWqOulFW5IObjpJU0-7" vertex="1">
          <mxGeometry y="78" width="360" height="272" as="geometry" />
        </mxCell>
        <mxCell id="UuUKAxAAsCh4prNaaaRa-2" value="" style="endArrow=open;startArrow=circlePlus;endFill=0;startFill=0;endSize=8;html=1;rounded=0;exitX=0.999;exitY=0.739;exitDx=0;exitDy=0;exitPerimeter=0;entryX=-0.001;entryY=0.318;entryDx=0;entryDy=0;entryPerimeter=0;labelBackgroundColor=none;fontColor=default;labelBorderColor=none;" parent="1" source="tIdZeXWYgV82YrUBsXAL-2" target="tLeZWqOulFW5IObjpJU0-2" edge="1">
          <mxGeometry width="160" relative="1" as="geometry">
            <mxPoint x="1640" y="330" as="sourcePoint" />
            <mxPoint x="1800" y="330" as="targetPoint" />
          </mxGeometry>
        </mxCell>
        <mxCell id="UuUKAxAAsCh4prNaaaRa-7" value="DodgeBot" style="swimlane;fontStyle=1;align=center;verticalAlign=top;childLayout=stackLayout;horizontal=1;startSize=26;horizontalStack=0;resizeParent=1;resizeParentMax=0;resizeLast=0;collapsible=1;marginBottom=0;whiteSpace=wrap;html=1;labelBackgroundColor=none;labelBorderColor=none;" parent="1" vertex="1">
          <mxGeometry x="800" y="2166" width="400" height="170" as="geometry" />
        </mxCell>
        <mxCell id="UuUKAxAAsCh4prNaaaRa-8" value="&lt;div&gt;+ field: type&lt;/div&gt;# DODGE_COUNT : int" style="text;fillColor=none;align=left;verticalAlign=top;spacingLeft=4;spacingRight=4;overflow=hidden;rotatable=0;points=[[0,0.5],[1,0.5]];portConstraint=eastwest;whiteSpace=wrap;html=1;labelBackgroundColor=none;labelBorderColor=none;" parent="UuUKAxAAsCh4prNaaaRa-7" vertex="1">
          <mxGeometry y="26" width="400" height="34" as="geometry" />
        </mxCell>
        <mxCell id="UuUKAxAAsCh4prNaaaRa-9" value="" style="line;strokeWidth=1;fillColor=none;align=left;verticalAlign=middle;spacingTop=-1;spacingLeft=3;spacingRight=3;rotatable=0;labelPosition=right;points=[];portConstraint=eastwest;labelBackgroundColor=none;labelBorderColor=none;" parent="UuUKAxAAsCh4prNaaaRa-7" vertex="1">
          <mxGeometry y="60" width="400" height="8" as="geometry" />
        </mxCell>
        <mxCell id="UuUKAxAAsCh4prNaaaRa-10" value="&lt;div&gt;+ method(type): type&lt;/div&gt;&lt;div&gt;+ DodgeBot(id : string, x : int, y : int)&lt;/div&gt;&lt;div&gt;+ ~DodgeBot()&lt;/div&gt;&lt;div&gt;&lt;div&gt;&lt;div&gt;+ DodgeBot(other : const Robot &amp;amp;)&lt;/div&gt;&lt;div&gt;+ operator=(other : const Robot &amp;amp;) : DodgeBot&lt;/div&gt;&lt;/div&gt;&lt;/div&gt;+ actionMove(battlefield : Battlefield *) : void" style="text;fillColor=none;align=left;verticalAlign=top;spacingLeft=4;spacingRight=4;overflow=hidden;rotatable=0;points=[[0,0.5],[1,0.5]];portConstraint=eastwest;whiteSpace=wrap;html=1;labelBackgroundColor=none;labelBorderColor=none;" parent="UuUKAxAAsCh4prNaaaRa-7" vertex="1">
          <mxGeometry y="68" width="400" height="102" as="geometry" />
        </mxCell>
        <mxCell id="UuUKAxAAsCh4prNaaaRa-11" value="LifeStealBot" style="swimlane;fontStyle=1;align=center;verticalAlign=top;childLayout=stackLayout;horizontal=1;startSize=26;horizontalStack=0;resizeParent=1;resizeParentMax=0;resizeLast=0;collapsible=1;marginBottom=0;whiteSpace=wrap;html=1;labelBackgroundColor=none;labelBorderColor=none;" parent="1" vertex="1">
          <mxGeometry x="1760" y="2336" width="320" height="160" as="geometry" />
        </mxCell>
        <mxCell id="UuUKAxAAsCh4prNaaaRa-12" value="&lt;div&gt;+ field: type&lt;/div&gt;" style="text;fillColor=none;align=left;verticalAlign=top;spacingLeft=4;spacingRight=4;overflow=hidden;rotatable=0;points=[[0,0.5],[1,0.5]];portConstraint=eastwest;whiteSpace=wrap;html=1;labelBackgroundColor=none;labelBorderColor=none;" parent="UuUKAxAAsCh4prNaaaRa-11" vertex="1">
          <mxGeometry y="26" width="320" height="24" as="geometry" />
        </mxCell>
        <mxCell id="UuUKAxAAsCh4prNaaaRa-13" value="" style="line;strokeWidth=1;fillColor=none;align=left;verticalAlign=middle;spacingTop=-1;spacingLeft=3;spacingRight=3;rotatable=0;labelPosition=right;points=[];portConstraint=eastwest;labelBackgroundColor=none;labelBorderColor=none;" parent="UuUKAxAAsCh4prNaaaRa-11" vertex="1">
          <mxGeometry y="50" width="320" height="8" as="geometry" />
        </mxCell>
        <mxCell id="UuUKAxAAsCh4prNaaaRa-14" value="&lt;div&gt;+ method(type): type&lt;/div&gt;&lt;div&gt;+&amp;nbsp;LifeStealBot(id : string, x : int, y : int);&lt;/div&gt;&lt;div&gt;+ ~LifeStealBot()&lt;/div&gt;&lt;div&gt;&lt;div&gt;&lt;div&gt;&lt;div&gt;+&amp;nbsp;LifeStealBot(other : const Robot &amp;amp;)&lt;/div&gt;&lt;div&gt;+ operator=(other : const Robot &amp;amp;) : LifeStealBot&lt;/div&gt;&lt;/div&gt;&lt;/div&gt;&lt;/div&gt;+ actionFire(battlefield : Battlefield *) : void" style="text;fillColor=none;align=left;verticalAlign=top;spacingLeft=4;spacingRight=4;overflow=hidden;rotatable=0;points=[[0,0.5],[1,0.5]];portConstraint=eastwest;whiteSpace=wrap;html=1;labelBackgroundColor=none;labelBorderColor=none;" parent="UuUKAxAAsCh4prNaaaRa-11" vertex="1">
          <mxGeometry y="58" width="320" height="102" as="geometry" />
        </mxCell>
        <mxCell id="UuUKAxAAsCh4prNaaaRa-15" value="ShotgunBot" style="swimlane;fontStyle=1;align=center;verticalAlign=top;childLayout=stackLayout;horizontal=1;startSize=26;horizontalStack=0;resizeParent=1;resizeParentMax=0;resizeLast=0;collapsible=1;marginBottom=0;whiteSpace=wrap;html=1;labelBackgroundColor=none;labelBorderColor=none;" parent="1" vertex="1">
          <mxGeometry x="1300" y="2326" width="320" height="200" as="geometry" />
        </mxCell>
        <mxCell id="UuUKAxAAsCh4prNaaaRa-16" value="&lt;div&gt;+ field: type&lt;/div&gt;&lt;div&gt;# SPREAD_SHOOT_SUCCESS_PERCENTAGE : int&lt;/div&gt;&lt;div&gt;# shotgun_spread : vector&amp;lt;location *&amp;gt;&lt;/div&gt;" style="text;fillColor=none;align=left;verticalAlign=top;spacingLeft=4;spacingRight=4;overflow=hidden;rotatable=0;points=[[0,0.5],[1,0.5]];portConstraint=eastwest;whiteSpace=wrap;html=1;labelBackgroundColor=none;labelBorderColor=none;" parent="UuUKAxAAsCh4prNaaaRa-15" vertex="1">
          <mxGeometry y="26" width="320" height="54" as="geometry" />
        </mxCell>
        <mxCell id="UuUKAxAAsCh4prNaaaRa-17" value="" style="line;strokeWidth=1;fillColor=none;align=left;verticalAlign=middle;spacingTop=-1;spacingLeft=3;spacingRight=3;rotatable=0;labelPosition=right;points=[];portConstraint=eastwest;labelBackgroundColor=none;labelBorderColor=none;" parent="UuUKAxAAsCh4prNaaaRa-15" vertex="1">
          <mxGeometry y="80" width="320" height="8" as="geometry" />
        </mxCell>
        <mxCell id="UuUKAxAAsCh4prNaaaRa-18" value="&lt;div&gt;+ method(type): type&lt;/div&gt;&lt;div&gt;+&amp;nbsp;ShotgunBot(id : string, x : int, y : int);&lt;/div&gt;&lt;div&gt;+ ~ShotgunBot()&lt;/div&gt;&lt;div&gt;&lt;div&gt;&lt;div&gt;&lt;div&gt;+&amp;nbsp;ShotgunBot(other : const Robot &amp;amp;)&lt;/div&gt;&lt;div&gt;+ operator=(other : const Robot &amp;amp;) : ShotgunBot&lt;/div&gt;&lt;/div&gt;&lt;/div&gt;&lt;/div&gt;&lt;div&gt;+ actionFire(battlefield : Battlefield *) : void&lt;/div&gt;&lt;div&gt;# setShotgunSpread(shootloc : location *)&lt;/div&gt;" style="text;fillColor=none;align=left;verticalAlign=top;spacingLeft=4;spacingRight=4;overflow=hidden;rotatable=0;points=[[0,0.5],[1,0.5]];portConstraint=eastwest;whiteSpace=wrap;html=1;labelBackgroundColor=none;labelBorderColor=none;" parent="UuUKAxAAsCh4prNaaaRa-15" vertex="1">
          <mxGeometry y="88" width="320" height="112" as="geometry" />
        </mxCell>
        <mxCell id="khhG8IaxQnSWrvo70X1a-1" value="" style="endArrow=diamondThin;endFill=0;endSize=24;html=1;rounded=0;entryX=0;entryY=0.608;entryDx=0;entryDy=0;entryPerimeter=0;" edge="1" parent="1" target="tIdZeXWYgV82YrUBsXAL-2">
          <mxGeometry width="160" relative="1" as="geometry">
            <mxPoint x="1035" y="270" as="sourcePoint" />
            <mxPoint x="1195" y="270" as="targetPoint" />
          </mxGeometry>
        </mxCell>
        <mxCell id="khhG8IaxQnSWrvo70X1a-4" value="" style="endArrow=block;endSize=16;endFill=0;html=1;rounded=0;edgeStyle=orthogonalEdgeStyle;entryX=0.111;entryY=1;entryDx=0;entryDy=0;entryPerimeter=0;" edge="1" parent="1" target="tIdZeXWYgV82YrUBsXAL-4">
          <mxGeometry width="160" relative="1" as="geometry">
            <mxPoint x="1200" y="920" as="sourcePoint" />
            <mxPoint x="1300" y="850" as="targetPoint" />
            <Array as="points">
              <mxPoint x="1201" y="920" />
              <mxPoint x="1201" y="900" />
              <mxPoint x="1320" y="900" />
            </Array>
          </mxGeometry>
        </mxCell>
        <mxCell id="khhG8IaxQnSWrvo70X1a-5" value="" style="endArrow=block;endSize=16;endFill=0;html=1;rounded=0;edgeStyle=orthogonalEdgeStyle;exitX=0.5;exitY=0;exitDx=0;exitDy=0;entryX=-0.008;entryY=0.979;entryDx=0;entryDy=0;entryPerimeter=0;" edge="1" parent="1" source="oOBSI1VlpClQHZ700OyM-1" target="tIdZeXWYgV82YrUBsXAL-4">
          <mxGeometry width="160" relative="1" as="geometry">
            <mxPoint x="720" y="880" as="sourcePoint" />
            <mxPoint x="960" y="800" as="targetPoint" />
          </mxGeometry>
        </mxCell>
        <mxCell id="khhG8IaxQnSWrvo70X1a-6" value="" style="endArrow=block;endSize=16;endFill=0;html=1;rounded=0;edgeStyle=orthogonalEdgeStyle;exitX=0.5;exitY=0;exitDx=0;exitDy=0;entryX=0.888;entryY=1.001;entryDx=0;entryDy=0;entryPerimeter=0;" edge="1" parent="1" source="oOBSI1VlpClQHZ700OyM-9" target="tIdZeXWYgV82YrUBsXAL-4">
          <mxGeometry width="160" relative="1" as="geometry">
            <mxPoint x="1690" y="880" as="sourcePoint" />
            <mxPoint x="1790" y="810" as="targetPoint" />
            <Array as="points">
              <mxPoint x="1730" y="900" />
              <mxPoint x="1600" y="900" />
            </Array>
          </mxGeometry>
        </mxCell>
        <mxCell id="khhG8IaxQnSWrvo70X1a-7" value="" style="endArrow=block;endSize=16;endFill=0;html=1;rounded=0;edgeStyle=orthogonalEdgeStyle;exitX=0.5;exitY=0;exitDx=0;exitDy=0;entryX=0.998;entryY=0.976;entryDx=0;entryDy=0;entryPerimeter=0;" edge="1" parent="1" source="oOBSI1VlpClQHZ700OyM-13" target="tIdZeXWYgV82YrUBsXAL-4">
          <mxGeometry width="160" relative="1" as="geometry">
            <mxPoint x="2110" y="890" as="sourcePoint" />
            <mxPoint x="2210" y="820" as="targetPoint" />
          </mxGeometry>
        </mxCell>
        <mxCell id="khhG8IaxQnSWrvo70X1a-8" value="" style="endArrow=block;endSize=16;endFill=0;html=1;rounded=0;edgeStyle=orthogonalEdgeStyle;exitX=0.222;exitY=-0.008;exitDx=0;exitDy=0;exitPerimeter=0;entryX=0.767;entryY=1.006;entryDx=0;entryDy=0;entryPerimeter=0;" edge="1" parent="1" source="tLeZWqOulFW5IObjpJU0-7" target="oOBSI1VlpClQHZ700OyM-8">
          <mxGeometry width="160" relative="1" as="geometry">
            <mxPoint x="1400" y="1260" as="sourcePoint" />
            <mxPoint x="1359" y="1130" as="targetPoint" />
          </mxGeometry>
        </mxCell>
        <mxCell id="khhG8IaxQnSWrvo70X1a-9" value="" style="endArrow=block;endSize=16;endFill=0;html=1;rounded=0;edgeStyle=orthogonalEdgeStyle;exitX=0.778;exitY=0;exitDx=0;exitDy=0;exitPerimeter=0;entryX=0.176;entryY=0.999;entryDx=0;entryDy=0;entryPerimeter=0;" edge="1" parent="1" source="tLeZWqOulFW5IObjpJU0-7" target="oOBSI1VlpClQHZ700OyM-12">
          <mxGeometry width="160" relative="1" as="geometry">
            <mxPoint x="1610" y="1280" as="sourcePoint" />
            <mxPoint x="1710" y="1210" as="targetPoint" />
            <Array as="points">
              <mxPoint x="1560" y="1200" />
              <mxPoint x="1600" y="1200" />
            </Array>
          </mxGeometry>
        </mxCell>
        <mxCell id="khhG8IaxQnSWrvo70X1a-10" value="" style="endArrow=block;endSize=16;endFill=0;html=1;rounded=0;edgeStyle=orthogonalEdgeStyle;exitX=0.882;exitY=0;exitDx=0;exitDy=0;exitPerimeter=0;entryX=0.176;entryY=0.998;entryDx=0;entryDy=0;entryPerimeter=0;" edge="1" parent="1" source="tLeZWqOulFW5IObjpJU0-7" target="oOBSI1VlpClQHZ700OyM-16">
          <mxGeometry width="160" relative="1" as="geometry">
            <mxPoint x="1620" y="1250" as="sourcePoint" />
            <mxPoint x="1990" y="1200" as="targetPoint" />
            <Array as="points">
              <mxPoint x="1598" y="1240" />
              <mxPoint x="2120" y="1240" />
            </Array>
          </mxGeometry>
        </mxCell>
        <mxCell id="khhG8IaxQnSWrvo70X1a-11" value="" style="endArrow=block;endSize=16;endFill=0;html=1;rounded=0;edgeStyle=orthogonalEdgeStyle;exitX=0.111;exitY=0.001;exitDx=0;exitDy=0;exitPerimeter=0;entryX=0.877;entryY=0.99;entryDx=0;entryDy=0;entryPerimeter=0;" edge="1" parent="1" source="tLeZWqOulFW5IObjpJU0-7" target="oOBSI1VlpClQHZ700OyM-4">
          <mxGeometry width="160" relative="1" as="geometry">
            <mxPoint x="1130" y="1240" as="sourcePoint" />
            <mxPoint x="1230" y="1170" as="targetPoint" />
            <Array as="points">
              <mxPoint x="1320" y="1240" />
              <mxPoint x="841" y="1240" />
            </Array>
          </mxGeometry>
        </mxCell>
        <mxCell id="khhG8IaxQnSWrvo70X1a-12" value="" style="endArrow=block;endSize=16;endFill=0;html=1;rounded=0;edgeStyle=orthogonalEdgeStyle;exitX=0.5;exitY=0;exitDx=0;exitDy=0;entryX=0.526;entryY=0.998;entryDx=0;entryDy=0;entryPerimeter=0;" edge="1" parent="1" source="tBobR_7DxXMw_WLZoEAN-21" target="tLeZWqOulFW5IObjpJU0-10">
          <mxGeometry width="160" relative="1" as="geometry">
            <mxPoint x="1470" y="1740" as="sourcePoint" />
            <mxPoint x="1570" y="1670" as="targetPoint" />
          </mxGeometry>
        </mxCell>
        <mxCell id="khhG8IaxQnSWrvo70X1a-13" value="" style="endArrow=block;endSize=16;endFill=0;html=1;rounded=0;edgeStyle=orthogonalEdgeStyle;exitX=1;exitY=0.5;exitDx=0;exitDy=0;entryX=0.67;entryY=0.999;entryDx=0;entryDy=0;entryPerimeter=0;" edge="1" parent="1" source="tBobR_7DxXMw_WLZoEAN-26" target="tLeZWqOulFW5IObjpJU0-10">
          <mxGeometry width="160" relative="1" as="geometry">
            <mxPoint x="1670" y="2010" as="sourcePoint" />
            <mxPoint x="1660" y="1680" as="targetPoint" />
            <Array as="points">
              <mxPoint x="1640" y="2035" />
              <mxPoint x="1640" y="1720" />
              <mxPoint x="1521" y="1720" />
            </Array>
          </mxGeometry>
        </mxCell>
        <mxCell id="khhG8IaxQnSWrvo70X1a-14" value="" style="endArrow=block;endSize=16;endFill=0;html=1;rounded=0;edgeStyle=orthogonalEdgeStyle;exitX=0;exitY=0.5;exitDx=0;exitDy=0;entryX=1;entryY=0.04;entryDx=0;entryDy=0;entryPerimeter=0;" edge="1" parent="1" source="tBobR_7DxXMw_WLZoEAN-10" target="tLeZWqOulFW5IObjpJU0-7">
          <mxGeometry width="160" relative="1" as="geometry">
            <mxPoint x="1960" y="1610" as="sourcePoint" />
            <mxPoint x="1800" y="1280" as="targetPoint" />
            <Array as="points">
              <mxPoint x="1760" y="1773" />
              <mxPoint x="1760" y="1280" />
            </Array>
          </mxGeometry>
        </mxCell>
        <mxCell id="khhG8IaxQnSWrvo70X1a-15" value="" style="endArrow=block;endSize=16;endFill=0;html=1;rounded=0;edgeStyle=orthogonalEdgeStyle;entryX=1.003;entryY=0.676;entryDx=0;entryDy=0;exitX=0;exitY=0.5;exitDx=0;exitDy=0;entryPerimeter=0;" edge="1" parent="1" source="tBobR_7DxXMw_WLZoEAN-14" target="tLeZWqOulFW5IObjpJU0-8">
          <mxGeometry width="160" relative="1" as="geometry">
            <mxPoint x="1740" y="1580" as="sourcePoint" />
            <mxPoint x="1880" y="1370" as="targetPoint" />
            <Array as="points">
              <mxPoint x="1740" y="1999" />
              <mxPoint x="1740" y="1322" />
              <mxPoint x="1670" y="1322" />
            </Array>
          </mxGeometry>
        </mxCell>
        <mxCell id="khhG8IaxQnSWrvo70X1a-16" value="" style="endArrow=block;endSize=16;endFill=0;html=1;rounded=0;edgeStyle=orthogonalEdgeStyle;entryX=1;entryY=0.059;entryDx=0;entryDy=0;entryPerimeter=0;exitX=0;exitY=0.5;exitDx=0;exitDy=0;" edge="1" parent="1" source="tBobR_7DxXMw_WLZoEAN-18" target="tLeZWqOulFW5IObjpJU0-10">
          <mxGeometry width="160" relative="1" as="geometry">
            <mxPoint x="1710" y="2190" as="sourcePoint" />
            <mxPoint x="1780" y="1400" as="targetPoint" />
          </mxGeometry>
        </mxCell>
        <mxCell id="khhG8IaxQnSWrvo70X1a-17" value="" style="endArrow=block;endSize=16;endFill=0;html=1;rounded=0;edgeStyle=orthogonalEdgeStyle;entryX=1.001;entryY=0.208;entryDx=0;entryDy=0;entryPerimeter=0;exitX=0;exitY=0.5;exitDx=0;exitDy=0;" edge="1" parent="1" source="UuUKAxAAsCh4prNaaaRa-12" target="tLeZWqOulFW5IObjpJU0-10">
          <mxGeometry width="160" relative="1" as="geometry">
            <mxPoint x="1670" y="2440" as="sourcePoint" />
            <mxPoint x="1770" y="1550" as="targetPoint" />
          </mxGeometry>
        </mxCell>
        <mxCell id="khhG8IaxQnSWrvo70X1a-18" value="" style="endArrow=block;endSize=16;endFill=0;html=1;rounded=0;edgeStyle=orthogonalEdgeStyle;entryX=-0.001;entryY=0.037;entryDx=0;entryDy=0;entryPerimeter=0;exitX=1;exitY=0.5;exitDx=0;exitDy=0;" edge="1" parent="1" source="tBobR_7DxXMw_WLZoEAN-6" target="tLeZWqOulFW5IObjpJU0-7">
          <mxGeometry width="160" relative="1" as="geometry">
            <mxPoint x="1210" y="1460" as="sourcePoint" />
            <mxPoint x="1310" y="1390" as="targetPoint" />
          </mxGeometry>
        </mxCell>
        <mxCell id="khhG8IaxQnSWrvo70X1a-19" value="" style="endArrow=block;endSize=16;endFill=0;html=1;rounded=0;edgeStyle=orthogonalEdgeStyle;entryX=0;entryY=0.5;entryDx=0;entryDy=0;exitX=1;exitY=0.5;exitDx=0;exitDy=0;" edge="1" parent="1" source="tBobR_7DxXMw_WLZoEAN-2" target="tLeZWqOulFW5IObjpJU0-8">
          <mxGeometry width="160" relative="1" as="geometry">
            <mxPoint x="1210" y="1660" as="sourcePoint" />
            <mxPoint x="1310" y="1590" as="targetPoint" />
          </mxGeometry>
        </mxCell>
        <mxCell id="khhG8IaxQnSWrvo70X1a-20" value="" style="endArrow=block;endSize=16;endFill=0;html=1;rounded=0;edgeStyle=orthogonalEdgeStyle;entryX=0.004;entryY=0.048;entryDx=0;entryDy=0;entryPerimeter=0;exitX=1;exitY=0.25;exitDx=0;exitDy=0;" edge="1" parent="1" source="UuUKAxAAsCh4prNaaaRa-7" target="tLeZWqOulFW5IObjpJU0-10">
          <mxGeometry width="160" relative="1" as="geometry">
            <mxPoint x="1230" y="1490" as="sourcePoint" />
            <mxPoint x="1330" y="1420" as="targetPoint" />
          </mxGeometry>
        </mxCell>
        <mxCell id="khhG8IaxQnSWrvo70X1a-22" value="" style="endArrow=block;endSize=16;endFill=0;html=1;rounded=0;edgeStyle=orthogonalEdgeStyle;exitX=0.5;exitY=0;exitDx=0;exitDy=0;entryX=1;entryY=0.5;entryDx=0;entryDy=0;" edge="1" parent="1" source="UuUKAxAAsCh4prNaaaRa-15" target="tLeZWqOulFW5IObjpJU0-10">
          <mxGeometry width="160" relative="1" as="geometry">
            <mxPoint x="1450" y="2285.79" as="sourcePoint" />
            <mxPoint x="1680" y="1800" as="targetPoint" />
            <Array as="points">
              <mxPoint x="1460" y="2280" />
              <mxPoint x="1680" y="2280" />
              <mxPoint x="1680" y="1480" />
            </Array>
          </mxGeometry>
        </mxCell>
      </root>
    </mxGraphModel>
  </diagram>
</mxfile>
